<svg width="274" height="109" viewBox="0 0 274 109" fill="none" xmlns="http://www.w3.org/2000/svg">
<path d="M31.0475 77.8924C31.0404 75.9555 30.3514 74.4769 28.9805 73.4565C27.6095 72.4133 25.1446 71.3285 21.5858 70.2022C18.0269 69.053 15.2086 67.924 13.131 66.815C7.46889 63.7822 4.6284 59.6796 4.60955 54.5071C4.59975 51.8183 5.34298 49.423 6.83924 47.3212C8.3582 45.1965 10.5283 43.5366 13.3495 42.3414C16.1934 41.1461 19.3814 40.542 22.9132 40.5292C26.4679 40.5162 29.6376 41.1541 32.4222 42.4428C35.2068 43.7087 37.3667 45.5123 38.9019 47.8538C40.46 50.1951 41.2444 52.8583 41.2553 55.8433L31.0015 55.8807C30.9931 53.602 30.2689 51.8387 28.8288 50.5907C27.3887 49.3199 25.3697 48.6892 22.7721 48.6987C20.2656 48.7078 18.3193 49.2504 16.9333 50.3264C15.5471 51.3797 14.8572 52.7722 14.8635 54.5039C14.8694 56.1217 15.6833 57.4746 17.3051 58.5624C18.9497 59.6502 21.3574 60.6668 24.5282 61.6123C30.3678 63.3456 34.6254 65.5062 37.3009 68.0941C39.9763 70.682 41.3211 73.9128 41.3353 77.7865C41.3509 82.0931 39.7341 85.4828 36.4846 87.9556C33.235 90.4056 28.8531 91.6407 23.3388 91.6608C19.5107 91.6747 16.0219 90.9924 12.8723 89.6139C9.72265 88.2126 7.31167 86.296 5.63939 83.8639C3.98989 81.4317 3.15929 78.6092 3.14758 75.3964L13.4356 75.3589C13.4556 80.8504 16.7468 83.5842 23.3093 83.5602C25.7474 83.5514 27.6483 83.0545 29.0119 82.0697C30.3754 81.0621 31.054 79.6697 31.0475 77.8924ZM63.8688 70.8684L58.5577 76.63L58.6095 90.8486L48.3557 90.886L48.1743 41.1207L58.4282 41.0833L58.5104 63.6418L62.9995 57.4389L75.6204 41.0207L88.2327 40.9747L70.6425 63.1532L88.9267 90.7382L76.7246 90.7826L63.8688 70.8684ZM122.652 69.0477L102.964 69.1195L103.013 82.4495L126.118 82.3653L126.148 90.6025L92.789 90.7241L92.6076 40.9588L125.898 40.8375L125.929 49.1431L102.892 49.227L102.935 61.0873L122.622 61.0156L122.652 69.0477ZM170.157 48.9819L154.913 49.0375L155.064 90.4972L144.81 90.5345L144.659 49.0748L129.62 49.1296L129.59 40.824L170.127 40.6763L170.157 48.9819ZM201.398 77.2716C201.391 75.3347 200.702 73.8561 199.331 72.8357C197.96 71.7925 195.495 70.7078 191.936 69.5814C188.377 68.4323 185.559 67.3032 183.481 66.1942C177.819 63.1614 174.979 59.0588 174.96 53.8863C174.95 51.1975 175.693 48.8022 177.19 46.7004C178.709 44.5757 180.879 42.9158 183.7 41.7206C186.544 40.5253 189.732 39.9213 193.264 39.9084C196.818 39.8954 199.988 40.5333 202.773 41.822C205.557 43.0879 207.717 44.8916 209.252 47.233C210.81 49.5743 211.595 52.2375 211.606 55.2225L201.352 55.2599C201.344 52.9813 200.619 51.2179 199.179 49.9699C197.739 48.6991 195.72 48.0684 193.123 48.0779C190.616 48.087 188.67 48.6296 187.284 49.7056C185.898 50.7589 185.208 52.1514 185.214 53.8831C185.22 55.501 186.034 56.8538 187.656 57.9416C189.3 59.0294 191.708 60.046 194.879 60.9915C200.718 62.7248 204.976 64.8854 207.651 67.4733C210.327 70.0613 211.672 73.2921 211.686 77.1657C211.701 81.4723 210.084 84.862 206.835 87.3348C203.585 89.7849 199.204 91.0199 193.689 91.04C189.861 91.0539 186.372 90.3717 183.223 88.9932C180.073 87.5919 177.662 85.6752 175.99 83.2431C174.34 80.811 173.51 77.9884 173.498 74.7756L183.786 74.7381C183.806 80.2296 187.097 82.9634 193.66 82.9395C196.098 82.9306 197.999 82.4337 199.362 81.4489C200.726 80.4414 201.404 79.0489 201.398 77.2716Z" fill="#009A3C" fill-opacity="0.35"/>
<path d="M7.46821 81.2887C7.4665 80.8199 7.29917 80.4592 6.96622 80.2065C6.63815 79.9538 6.04395 79.6996 5.18364 79.4439C4.32333 79.1883 3.63869 78.9027 3.12972 78.5872C2.15583 77.9804 1.66709 77.1862 1.66351 76.2048C1.66038 75.3454 2.00692 74.6361 2.70313 74.077C3.40422 73.5178 4.31385 73.2361 5.432 73.2321C6.17418 73.2293 6.8363 73.3637 7.41835 73.635C8.00039 73.9063 8.45836 74.2953 8.79224 74.8019C9.1261 75.3036 9.29415 75.862 9.29639 76.4773L7.4507 76.484C7.44867 75.9274 7.27131 75.4934 6.91861 75.1822C6.57078 74.8661 6.07215 74.7092 5.42275 74.7116C4.81728 74.7138 4.34656 74.8449 4.01059 75.1049C3.67951 75.3649 3.51481 75.7269 3.5165 76.1907C3.51792 76.5813 3.69978 76.9078 4.06207 77.1702C4.42434 77.4276 5.02096 77.6794 5.85194 77.9254C6.6829 78.1665 7.35042 78.4448 7.85451 78.7604C8.35857 79.071 8.72854 79.431 8.96441 79.8403C9.20026 80.2447 9.31918 80.7204 9.32117 81.2673C9.32441 82.1559 8.9852 82.8652 8.30353 83.395C7.62673 83.9199 6.70483 84.1845 5.53785 84.1888C4.76637 84.1916 4.05541 84.0526 3.40497 83.7717C2.75939 83.486 2.25502 83.0923 1.89186 82.5907C1.53359 82.0891 1.35323 81.5038 1.35079 80.8349L3.20381 80.8281C3.20601 81.4336 3.40792 81.9016 3.80951 82.2322C4.21111 82.5627 4.78544 82.7267 5.53251 82.7239C6.17704 82.7216 6.65996 82.5904 6.98128 82.3305C7.30747 82.0656 7.46978 81.7183 7.46821 81.2887ZM15.5832 83.2293C15.063 83.8464 14.322 84.1568 13.3601 84.1603C12.5007 84.1634 11.8479 83.9143 11.4018 83.413C10.9605 82.9117 10.7381 82.1849 10.7346 81.2328L10.7159 76.0986L12.4957 76.0921L12.5143 81.2043C12.518 82.2102 12.9373 82.7116 13.7723 82.7086C14.6365 82.7054 15.2189 82.3932 15.5193 81.772L15.4986 76.0811L17.2784 76.0746L17.3073 83.9994L15.63 84.0055L15.5832 83.2293ZM21.0133 83.9859L19.2335 83.9924L19.1925 72.7425L20.9723 72.736L21.0133 83.9859ZM25.1522 74.1197L25.1592 76.0459L26.5581 76.0408L26.5629 77.3592L25.164 77.3643L25.1801 81.7881C25.1812 82.0908 25.2406 82.3103 25.3583 82.4466C25.4808 82.578 25.6959 82.6431 26.0035 82.642C26.2086 82.6413 26.416 82.6161 26.6258 82.5665L26.6308 83.9434C26.226 84.0572 25.8356 84.1148 25.4596 84.1162C24.0924 84.1212 23.4061 83.3693 23.4006 81.8605L23.3842 77.3708L22.0805 77.3755L22.0757 76.0572L23.3794 76.0524L23.3724 74.1262L25.1522 74.1197ZM32.688 83.9433C32.6093 83.7923 32.5401 83.5459 32.4802 83.2044C31.916 83.7972 31.2237 84.0952 30.4034 84.0982C29.6075 84.1011 28.9573 83.8764 28.4527 83.4241C27.9481 82.9718 27.6946 82.4112 27.6922 81.7423C27.6891 80.8976 27.9992 80.2495 28.6226 79.798C29.2508 79.3416 30.1484 79.1113 31.3154 79.107L32.4067 79.103L32.4048 78.583C32.4033 78.1729 32.2874 77.8461 32.057 77.6028C31.8266 77.3546 31.477 77.2314 31.0083 77.2331C30.603 77.2346 30.2713 77.3383 30.0133 77.5444C29.7553 77.7455 29.6268 78.0023 29.6279 78.3148L27.8482 78.3213C27.8466 77.8867 27.9891 77.4809 28.2759 77.1039C28.5625 76.722 28.9521 76.4227 29.4445 76.2061C29.9417 75.9894 30.4955 75.88 31.1059 75.8778C32.0336 75.8744 32.7742 76.1061 33.3277 76.5728C33.8811 77.0347 34.1667 77.6879 34.1844 78.5326L34.1974 82.1068C34.2 82.8197 34.3022 83.3881 34.504 83.8122L34.5044 83.9367L32.688 83.9433ZM30.7278 82.6687C31.0793 82.6675 31.4086 82.5808 31.7156 82.4088C32.0275 82.2368 32.261 82.0064 32.4162 81.7178L32.4108 80.2236L31.4513 80.2271C30.7921 80.2295 30.297 80.3461 29.9658 80.5768C29.6346 80.8075 29.4697 81.1328 29.4713 81.5527C29.4725 81.8945 29.5858 82.1675 29.8112 82.3718C30.0414 82.5711 30.3469 82.6701 30.7278 82.6687ZM37.6908 76.0003L37.7454 76.9156C38.3288 76.2055 39.0965 75.8487 40.0487 75.8452C41.6991 75.8392 42.5423 76.7809 42.5785 78.6705L42.5976 83.9072L40.8178 83.9137L40.7991 78.7795C40.7973 78.2766 40.6861 77.9059 40.4655 77.6674C40.2498 77.4241 39.8953 77.3033 39.4021 77.3051C38.6844 77.3077 38.1509 77.6343 37.8017 78.285L37.8223 83.9246L36.0425 83.9311L36.0136 76.0064L37.6908 76.0003ZM51.3698 79.2683L50.166 80.5544L50.1781 83.8796L48.3251 83.8864L48.2863 73.2224L50.1393 73.2156L50.1575 78.218L51.1783 76.9472L54.2848 73.2005L56.5259 73.1923L52.5808 77.9309L56.7919 83.8555L54.5946 83.8635L51.3698 79.2683ZM62.2382 83.0593C61.718 83.6764 60.9769 83.9867 60.015 83.9903C59.1557 83.9934 58.5029 83.7443 58.0567 83.243C57.6154 82.7417 57.3931 82.0149 57.3896 81.0628L57.3709 75.9285L59.1507 75.9221L59.1693 81.0343C59.173 82.0402 59.5923 82.5416 60.4272 82.5385C61.2915 82.5354 61.8738 82.2232 62.1743 81.602L62.1536 75.9111L63.9333 75.9046L63.9622 83.8294L62.285 83.8355L62.2382 83.0593ZM65.4271 79.803C65.4226 78.5823 65.7022 77.6023 66.266 76.8629C66.8296 76.1187 67.5876 75.7448 68.5397 75.7414C69.3795 75.7383 70.0593 76.0288 70.579 76.6128L70.5642 72.5552L72.344 72.5488L72.385 83.7987L70.7737 83.8046L70.6828 82.9846C70.1529 83.631 69.4437 83.9559 68.555 83.9591C67.6273 83.9625 66.874 83.5917 66.2951 82.8468C65.7211 82.1018 65.4317 81.0872 65.4271 79.803ZM67.2074 79.9503C67.2103 80.756 67.3664 81.3853 67.6757 81.8383C67.9898 82.2864 68.4325 82.5094 69.0038 82.5073C69.7314 82.5046 70.2624 82.178 70.5969 81.5274L70.5846 78.1436C70.2552 77.51 69.7267 77.1946 68.9991 77.1972C68.423 77.1993 67.9795 77.4304 67.6686 77.8905C67.3578 78.3458 67.204 79.0324 67.2074 79.9503ZM78.9768 83.7747C78.8981 83.6236 78.8288 83.3773 78.769 83.0357C78.2047 83.6286 77.5125 83.9265 76.6922 83.9295C75.8963 83.9324 75.246 83.7077 74.7415 83.2554C74.2369 82.8032 73.9834 82.2426 73.9809 81.5736C73.9778 80.7289 74.288 80.0808 74.9113 79.6293C75.5396 79.1729 76.4372 78.9426 77.6042 78.9383L78.6955 78.9344L78.6936 78.4143C78.6921 78.0042 78.5761 77.6775 78.3457 77.4342C78.1154 77.186 77.7658 77.0627 77.297 77.0644C76.8918 77.0659 76.5601 77.1697 76.3021 77.3757C76.044 77.5768 75.9155 77.8336 75.9167 78.1461L74.1369 78.1526C74.1353 77.7181 74.2779 77.3123 74.5646 76.9352C74.8513 76.5533 75.2408 76.2541 75.7332 76.0374C76.2305 75.8208 76.7843 75.7113 77.3946 75.7091C78.3224 75.7057 79.063 75.9374 79.6164 76.4041C80.1699 76.866 80.4554 77.5192 80.4732 78.3639L80.4862 81.9381C80.4888 82.651 80.591 83.2195 80.7927 83.6435L80.7932 83.768L78.9768 83.7747ZM77.0165 82.5001C77.3681 82.4988 77.6974 82.4121 78.0044 82.2401C78.3162 82.0681 78.5498 81.8377 78.705 81.5491L78.6995 80.055L77.7401 80.0584C77.0809 80.0608 76.5857 80.1774 76.2545 80.4081C75.9233 80.6388 75.7585 80.9641 75.76 81.384C75.7613 81.7258 75.8746 81.9989 76.0999 82.2031C76.3301 82.4025 76.6357 82.5015 77.0165 82.5001ZM86.4831 77.4484C86.2485 77.4102 86.0068 77.3916 85.7578 77.3925C84.9423 77.3955 84.3942 77.71 84.1132 78.336L84.133 83.7559L82.3532 83.7624L82.3243 75.8376L84.0235 75.8314L84.0707 76.7175C84.4979 76.0274 85.0923 75.681 85.854 75.6783C86.108 75.6773 86.318 75.7108 86.4843 75.7785L86.4831 77.4484ZM92.1456 83.7267C92.067 83.5756 91.9977 83.3293 91.9379 82.9877C91.3736 83.5806 90.6813 83.8785 89.861 83.8815C89.0651 83.8844 88.4149 83.6597 87.9103 83.2074C87.4057 82.7552 87.1522 82.1946 87.1498 81.5256C87.1467 80.6809 87.4568 80.0328 88.0802 79.5813C88.7084 79.1249 89.606 78.8946 90.773 78.8903L91.8643 78.8864L91.8624 78.3663C91.8609 77.9562 91.745 77.6295 91.5146 77.3862C91.2842 77.138 90.9346 77.0147 90.4659 77.0164C90.0606 77.0179 89.729 77.1217 89.4709 77.3277C89.2129 77.5288 89.0844 77.7856 89.0855 78.0981L87.3058 78.1046C87.3042 77.6701 87.4468 77.2643 87.7335 76.8872C88.0202 76.5053 88.4097 76.2061 88.9021 75.9894C89.3993 75.7728 89.9531 75.6633 90.5635 75.6611C91.4912 75.6577 92.2318 75.8894 92.7853 76.3561C93.3387 76.818 93.6243 77.4712 93.642 78.3159L93.6551 81.8901C93.6577 82.603 93.7598 83.1715 93.9616 83.5955L93.962 83.7201L92.1456 83.7267ZM90.1854 82.4521C90.537 82.4508 90.8662 82.3641 91.1732 82.1921C91.4851 82.0201 91.7186 81.7897 91.8738 81.5011L91.8684 80.007L90.9089 80.0105C90.2498 80.0129 89.7546 80.1294 89.4234 80.3601C89.0922 80.5908 88.9274 80.9161 88.9289 81.336C88.9301 81.6778 89.0434 81.9509 89.2688 82.1551C89.499 82.3545 89.8045 82.4535 90.1854 82.4521ZM97.72 73.8552L97.7271 75.7815L99.126 75.7764L99.1308 77.0947L97.7319 77.0998L97.748 81.5236C97.7491 81.8264 97.8085 82.0459 97.9262 82.1822C98.0487 82.3136 98.2638 82.3787 98.5714 82.3776C98.7765 82.3768 98.9839 82.3517 99.1937 82.3021L99.1987 83.679C98.7939 83.7928 98.4034 83.8504 98.0275 83.8517C96.6603 83.8567 95.974 83.1048 95.9685 81.596L95.9521 77.1063L94.6484 77.1111L94.6436 75.7927L95.9473 75.788L95.9403 73.8617L97.72 73.8552ZM110.644 78.8985L106.264 78.9145L106.276 82.1957L111.395 82.177L111.401 83.6565L104.428 83.6819L104.389 73.0179L111.311 72.9927L111.316 74.4868L106.248 74.5053L106.259 77.4496L110.638 77.4337L110.644 78.8985ZM115.333 81.3863L116.99 75.7113L118.828 75.7046L116.11 83.6393L114.565 83.645L111.767 75.7303L113.613 75.7236L115.333 81.3863ZM123.362 83.7594C122.234 83.7635 121.317 83.4129 120.611 82.7074C119.911 81.9971 119.558 81.0511 119.554 79.8695L119.553 79.6497C119.55 78.8587 119.699 78.1526 119.999 77.5314C120.305 76.9053 120.732 76.4179 121.283 76.0692C121.833 75.7205 122.448 75.5449 123.127 75.5424C124.206 75.5385 125.04 75.8797 125.628 76.566C126.221 77.2524 126.52 78.2254 126.525 79.4852L126.528 80.2029L121.349 80.2218C121.405 80.8759 121.625 81.3927 122.007 81.7721C122.394 82.1516 122.878 82.3403 123.459 82.3381C124.275 82.3352 124.937 82.0032 125.448 81.3421L126.411 82.2541C126.095 82.7289 125.671 83.0991 125.14 83.3647C124.614 83.6255 124.021 83.757 123.362 83.7594ZM123.125 76.9707C122.636 76.9725 122.241 77.1448 121.94 77.4877C121.643 77.8306 121.455 78.3073 121.374 78.918L124.765 78.9056L124.765 78.7738C124.723 78.1782 124.563 77.7296 124.284 77.4279C124.004 77.1213 123.618 76.9689 123.125 76.9707ZM129.551 75.6655L129.605 76.5808C130.189 75.8707 130.956 75.5139 131.908 75.5104C133.559 75.5044 134.402 76.4462 134.438 78.3357L134.457 83.5725L132.678 83.579L132.659 78.4447C132.657 77.9418 132.546 77.5711 132.325 77.3327C132.109 77.0893 131.755 76.9685 131.262 76.9703C130.544 76.9729 130.011 77.2996 129.661 77.9503L129.682 83.5899L127.902 83.5964L127.873 75.6716L129.551 75.6655ZM138.472 73.7067L138.479 75.633L139.878 75.6279L139.882 76.9462L138.484 76.9513L138.5 81.3751C138.501 81.6779 138.56 81.8974 138.678 82.0337C138.8 82.1651 139.015 82.2302 139.323 82.2291C139.528 82.2283 139.736 82.2031 139.945 82.1536L139.95 83.5305C139.546 83.6443 139.155 83.7019 138.779 83.7032C137.412 83.7082 136.726 82.9563 136.72 81.4475L136.704 76.9578L135.4 76.9626L135.395 75.6442L136.699 75.6395L136.692 73.7132L138.472 73.7067ZM152.412 74.3371L149.087 74.3492L149.12 83.5191L147.282 83.5258L147.249 74.3559L143.953 74.3679L143.947 72.8738L152.407 72.8429L152.412 74.3371ZM157.184 83.4897C157.106 83.3386 157.036 83.0923 156.976 82.7507C156.412 83.3436 155.72 83.6415 154.9 83.6445C154.104 83.6474 153.454 83.4227 152.949 82.9704C152.444 82.5182 152.191 81.9576 152.188 81.2886C152.185 80.4439 152.495 79.7958 153.119 79.3443C153.747 78.8879 154.645 78.6576 155.812 78.6533L156.903 78.6494L156.901 78.1293C156.9 77.7192 156.784 77.3925 156.553 77.1492C156.323 76.901 155.973 76.7777 155.505 76.7794C155.099 76.7809 154.768 76.8847 154.51 77.0907C154.251 77.2918 154.123 77.5486 154.124 77.8611L152.344 77.8676C152.343 77.4331 152.485 77.0273 152.772 76.6502C153.059 76.2683 153.448 75.9691 153.941 75.7524C154.438 75.5358 154.992 75.4263 155.602 75.4241C156.53 75.4207 157.27 75.6524 157.824 76.1191C158.377 76.581 158.663 77.2342 158.681 78.0789L158.694 81.6531C158.696 82.366 158.798 82.9345 159 83.3585L159.001 83.4831L157.184 83.4897ZM155.224 82.2151C155.576 82.2138 155.905 82.1271 156.212 81.9551C156.524 81.7831 156.757 81.5527 156.912 81.2641L156.907 79.77L155.948 79.7735C155.288 79.7759 154.793 79.8924 154.462 80.1231C154.131 80.3538 153.966 80.6791 153.968 81.099C153.969 81.4408 154.082 81.7139 154.307 81.9181C154.538 82.1175 154.843 82.2165 155.224 82.2151ZM167.505 79.5702C167.509 80.8007 167.237 81.7807 166.688 82.5102C166.143 83.2397 165.39 83.6063 164.428 83.6098C163.501 83.6131 162.777 83.2813 162.257 82.6142L162.172 83.4715L160.561 83.4774L160.52 72.2274L162.299 72.221L162.314 76.3078C162.825 75.7005 163.515 75.3953 164.384 75.3921C165.351 75.3886 166.111 75.7447 166.666 76.4604C167.22 77.1762 167.499 78.1786 167.504 79.4677L167.505 79.5702ZM165.724 79.4229C165.721 78.5635 165.567 77.9195 165.263 77.491C164.959 77.0624 164.519 76.8491 163.942 76.8512C163.171 76.854 162.63 77.1929 162.32 77.8679L162.332 81.1345C162.652 81.8218 163.2 82.164 163.976 82.1612C164.533 82.1592 164.962 81.9501 165.263 81.5339C165.564 81.1178 165.718 80.4898 165.725 79.6499L165.724 79.4229ZM173.815 82.6527C173.294 83.2698 172.553 83.5802 171.591 83.5837C170.732 83.5868 170.079 83.3377 169.633 82.8364C169.192 82.3351 168.969 81.6083 168.966 80.6562L168.947 75.5219L170.727 75.5155L170.746 80.6277C170.749 81.6336 171.169 82.135 172.004 82.1319C172.868 82.1288 173.45 81.8166 173.751 81.1954L173.73 75.5045L175.51 75.498L175.539 83.4228L173.861 83.4289L173.815 82.6527ZM179.245 83.4093L177.465 83.4158L177.424 72.1658L179.204 72.1594L179.245 83.4093ZM185.924 83.3849C185.846 83.2339 185.776 82.9875 185.717 82.6459C185.152 83.2388 184.46 83.5368 183.64 83.5398C182.844 83.5427 182.194 83.318 181.689 82.8657C181.184 82.4134 180.931 81.8528 180.928 81.1839C180.925 80.3392 181.236 79.6911 181.859 79.2396C182.487 78.7832 183.385 78.5529 184.552 78.5486L185.643 78.5446L185.641 78.0246C185.64 77.6145 185.524 77.2877 185.293 77.0444C185.063 76.7962 184.713 76.673 184.245 76.6747C183.839 76.6762 183.508 76.7799 183.25 76.986C182.992 77.1871 182.863 77.4439 182.864 77.7564L181.084 77.7629C181.083 77.3283 181.225 76.9225 181.512 76.5455C181.799 76.1636 182.188 75.8643 182.681 75.6477C183.178 75.431 183.732 75.3216 184.342 75.3194C185.27 75.316 186.01 75.5477 186.564 76.0144C187.117 76.4762 187.403 77.1295 187.421 77.9742L187.434 81.5484C187.436 82.2613 187.539 82.8297 187.74 83.2538L187.741 83.3783L185.924 83.3849ZM183.964 82.1103C184.316 82.1091 184.645 82.0224 184.952 81.8504C185.264 81.6784 185.497 81.448 185.653 81.1594L185.647 79.6652L184.688 79.6687C184.028 79.6711 183.533 79.7877 183.202 80.0184C182.871 80.2491 182.706 80.5744 182.708 80.9943C182.709 81.3361 182.822 81.6091 183.047 81.8134C183.278 82.0127 183.583 82.1117 183.964 82.1103ZM191.499 73.5135L191.506 75.4397L192.905 75.4346L192.909 76.753L191.511 76.7581L191.527 81.1819C191.528 81.4846 191.587 81.7041 191.705 81.8404C191.827 81.9718 192.042 82.037 192.35 82.0358C192.555 82.0351 192.763 82.0099 192.972 81.9603L192.977 83.3373C192.573 83.451 192.182 83.5086 191.806 83.51C190.439 83.515 189.753 82.7631 189.747 81.2543L189.731 76.7646L188.427 76.7693L188.422 75.451L189.726 75.4462L189.719 73.52L191.499 73.5135ZM196.193 83.3475L194.413 83.354L194.384 75.4293L196.164 75.4228L196.193 83.3475ZM194.267 73.3716C194.266 73.0981 194.35 72.8708 194.521 72.6895C194.696 72.5082 194.944 72.4169 195.267 72.4158C195.589 72.4146 195.838 72.504 196.015 72.684C196.191 72.8641 196.28 73.0908 196.281 73.3642C196.282 73.6328 196.195 73.8577 196.02 74.039C195.845 74.2154 195.596 74.3042 195.274 74.3054C194.951 74.3066 194.702 74.2196 194.526 74.0445C194.354 73.8644 194.268 73.6401 194.267 73.3716ZM197.789 79.306C197.787 78.5297 197.938 77.8309 198.243 77.2096C198.549 76.5835 198.979 76.1034 199.534 75.7694C200.09 75.4304 200.729 75.2596 201.451 75.257C202.521 75.2531 203.389 75.5942 204.055 76.2802C204.727 76.9663 205.091 77.878 205.149 79.0155L205.158 79.433C205.161 80.2142 205.012 80.913 204.712 81.5294C204.416 82.1457 203.988 82.6233 203.428 82.9623C202.872 83.3012 202.228 83.472 201.496 83.4747C200.378 83.4788 199.481 83.1109 198.804 82.3712C198.132 81.6266 197.794 80.6341 197.79 79.3939L197.789 79.306ZM199.57 79.4534C199.573 80.2688 199.743 80.9078 200.082 81.3704C200.421 81.8282 200.89 82.056 201.491 82.0538C202.091 82.0516 202.557 81.8155 202.887 81.3456C203.222 80.8756 203.388 80.189 203.385 79.2856C203.382 78.4849 203.206 77.8507 202.858 77.3833C202.515 76.9157 202.047 76.6831 201.457 76.6852C200.876 76.6873 200.415 76.921 200.075 77.3861C199.735 77.8463 199.566 78.5354 199.57 79.4534ZM208.3 75.3785L208.355 76.2939C208.938 75.5837 209.706 75.2269 210.658 75.2235C212.308 75.2175 213.152 76.1592 213.188 78.0487L213.207 83.2855L211.427 83.292L211.408 78.1578C211.407 77.6548 211.295 77.2841 211.075 77.0457C210.859 76.8023 210.505 76.6816 210.011 76.6834C209.294 76.686 208.76 77.0126 208.411 77.6633L208.431 83.3029L206.652 83.3094L206.623 75.3847L208.3 75.3785ZM224.498 80.4978C224.496 80.029 224.329 79.6683 223.996 79.4156C223.668 79.1629 223.074 78.9087 222.213 78.6531C221.353 78.3974 220.669 78.1118 220.16 77.7963C219.186 77.1895 218.697 76.3954 218.693 75.4139C218.69 74.5545 219.037 73.8453 219.733 73.2861C220.434 72.7269 221.344 72.4452 222.462 72.4412C223.204 72.4385 223.866 72.5728 224.448 72.8441C225.03 73.1154 225.488 73.5044 225.822 74.011C226.156 74.5127 226.324 75.0712 226.326 75.6864L224.481 75.6931C224.478 75.1365 224.301 74.7026 223.948 74.3913C223.601 74.0752 223.102 73.9183 222.453 73.9207C221.847 73.9229 221.376 74.054 221.04 74.314C220.709 74.574 220.545 74.936 220.546 75.3998C220.548 75.7905 220.73 76.1169 221.092 76.3793C221.454 76.6368 222.051 76.8885 222.882 77.1345C223.713 77.3756 224.38 77.6539 224.884 77.9695C225.388 78.2802 225.758 78.6401 225.994 79.0494C226.23 79.4539 226.349 79.9295 226.351 80.4764C226.354 81.365 226.015 82.0743 225.333 82.6041C224.657 83.129 223.735 83.3936 222.568 83.3979C221.796 83.4007 221.085 83.2617 220.435 82.9809C219.789 82.6951 219.285 82.3015 218.922 81.7998C218.563 81.2982 218.383 80.7129 218.381 80.044L220.234 80.0372C220.236 80.6427 220.438 81.1107 220.839 81.4413C221.241 81.7719 221.815 81.9358 222.562 81.9331C223.207 81.9307 223.69 81.7996 224.011 81.5396C224.337 81.2747 224.5 80.9275 224.498 80.4978ZM230.578 80.6734L232.17 75.2916L234.066 75.2846L230.95 84.422C230.472 85.7568 229.654 86.4263 228.497 86.4305C228.238 86.4314 227.952 86.3885 227.639 86.3018L227.634 84.9249L227.971 84.9456C228.421 84.944 228.757 84.8597 228.981 84.6929C229.21 84.5309 229.39 84.2568 229.52 83.8706L229.774 83.1885L226.962 75.3105L228.881 75.3035L230.578 80.6734ZM239.559 81.0362C239.558 80.7188 239.425 80.4776 239.161 80.3125C238.901 80.1474 238.468 80.0025 237.863 79.8778C237.257 79.753 236.751 79.5937 236.345 79.3999C235.454 78.9735 235.008 78.3525 235.005 77.5371C235.002 76.8535 235.288 76.2812 235.863 75.8201C236.437 75.359 237.169 75.1269 238.058 75.1236C239.005 75.1202 239.77 75.3518 240.353 75.8184C240.94 76.285 241.235 76.8918 241.238 77.6389L239.458 77.6454C239.457 77.3036 239.329 77.0209 239.074 76.7972C238.82 76.5686 238.482 76.4551 238.062 76.4566C237.672 76.458 237.352 76.5495 237.104 76.7311C236.861 76.9127 236.739 77.1548 236.74 77.4575C236.741 77.731 236.857 77.943 237.087 78.0935C237.317 78.244 237.781 78.3961 238.48 78.5498C239.179 78.6987 239.727 78.8798 240.123 79.0932C240.524 79.3017 240.82 79.5545 241.012 79.8517C241.208 80.1488 241.307 80.5098 241.309 80.9346C241.311 81.6474 241.018 82.2271 240.429 82.6736C239.84 83.1152 239.067 83.3378 238.11 83.3413C237.46 83.3436 236.881 83.2285 236.372 82.996C235.864 82.7635 235.467 82.4427 235.182 82.0336C234.898 81.6244 234.754 81.1831 234.753 80.7094L236.481 80.7031C236.507 81.123 236.667 81.4471 236.961 81.6755C237.255 81.899 237.643 82.0099 238.127 82.0082C238.595 82.0065 238.952 81.9173 239.195 81.7406C239.439 81.5591 239.56 81.3242 239.559 81.0362ZM245.068 73.3183L245.075 75.2445L246.474 75.2394L246.478 76.5578L245.08 76.5629L245.096 80.9867C245.097 81.2894 245.156 81.5089 245.274 81.6452C245.396 81.7766 245.611 81.8417 245.919 81.8406C246.124 81.8399 246.332 81.8147 246.541 81.7651L246.546 83.1421C246.142 83.2558 245.751 83.3134 245.375 83.3148C244.008 83.3198 243.322 82.5679 243.316 81.0591L243.3 76.5694L241.996 76.5741L241.991 75.2558L243.295 75.251L243.288 73.3248L245.068 73.3183ZM251.359 83.293C250.231 83.2971 249.314 82.9464 248.609 82.241C247.908 81.5306 247.555 80.5846 247.551 79.403L247.55 79.1833C247.547 78.3923 247.696 77.6862 247.996 77.065C248.302 76.4388 248.73 75.9514 249.28 75.6027C249.831 75.2541 250.445 75.0785 251.124 75.076C252.203 75.0721 253.037 75.4133 253.625 76.0996C254.219 76.7859 254.518 77.759 254.522 79.0187L254.525 79.7365L249.347 79.7554C249.403 80.4095 249.622 80.9262 250.004 81.3057C250.391 81.6852 250.875 81.8738 251.456 81.8717C252.272 81.8687 252.935 81.5367 253.445 80.8757L254.408 81.7877C254.092 82.2625 253.669 82.6327 253.137 82.8983C252.611 83.159 252.018 83.2906 251.359 83.293ZM251.122 76.5042C250.634 76.506 250.239 76.6784 249.937 77.0213C249.641 77.3641 249.452 77.8409 249.371 78.4516L252.762 78.4392L252.762 78.3074C252.72 77.7118 252.56 77.2632 252.281 76.9614C252.001 76.6548 251.615 76.5024 251.122 76.5042ZM257.57 75.199L257.624 76.0264C258.178 75.375 258.939 75.0475 259.906 75.044C260.965 75.0401 261.692 75.4428 262.085 76.2519C262.659 75.4392 263.468 75.031 264.513 75.0272C265.387 75.024 266.037 75.2634 266.463 75.7452C266.895 76.227 267.117 76.9391 267.13 77.8815L267.149 83.0889L265.37 83.0954L265.351 77.9392C265.349 77.4363 265.238 77.068 265.017 76.8345C264.797 76.6009 264.432 76.485 263.925 76.4869C263.519 76.4884 263.188 76.5994 262.93 76.8201C262.677 77.0359 262.499 77.3197 262.398 77.6717L262.425 83.1062L260.645 83.1126L260.626 77.8978C260.599 76.9653 260.121 76.5007 259.193 76.5041C258.48 76.5067 257.976 76.7991 257.68 77.3812L257.701 83.1234L255.921 83.1299L255.893 75.2051L257.57 75.199Z" fill="black"/>
<path d="M3.4931 11.0864L3.50754 15.0488L1.65453 15.0555L1.61566 4.39154L5.69523 4.37667C6.88663 4.37233 7.83257 4.67894 8.53307 5.29651C9.23845 5.91406 9.593 6.73309 9.59672 7.75359C9.60053 8.7985 9.25925 9.61274 8.5729 10.1963C7.89143 10.7798 6.93302 11.0739 5.69768 11.0784L3.4931 11.0864ZM3.48768 9.59959L5.71423 9.59148C6.37341 9.58908 6.87577 9.43344 7.22133 9.12456C7.56687 8.8108 7.73857 8.36095 7.73643 7.77502C7.73433 7.19885 7.55688 6.74051 7.20408 6.39999C6.85125 6.0546 6.36721 5.87814 5.75194 5.87061L3.47412 5.87891L3.48768 9.59959ZM10.6266 10.9872C10.6237 10.2108 10.775 9.512 11.0804 8.89077C11.3857 8.26465 11.8161 7.78456 12.3715 7.45051C12.9269 7.11157 13.566 6.94078 14.2886 6.93814C15.3579 6.93425 16.2259 7.27533 16.8924 7.96138C17.5639 8.64741 17.9286 9.55918 17.9864 10.6967L17.9953 11.1141C17.9981 11.8954 17.8493 12.5942 17.5488 13.2105C17.2532 13.8268 16.8252 14.3044 16.2649 14.6434C15.7095 14.9823 15.0656 15.1531 14.3332 15.1558C13.215 15.1599 12.3177 14.7921 11.6412 14.0523C10.9695 13.3077 10.6314 12.3153 10.6269 11.0751L10.6266 10.9872ZM12.4069 11.1345C12.4099 11.9499 12.5807 12.5889 12.9193 13.0516C13.2579 13.5093 13.7274 13.7371 14.328 13.7349C14.9286 13.7327 15.3941 13.4967 15.7244 13.0267C16.0596 12.5567 16.2255 11.8701 16.2222 10.9668C16.2193 10.166 16.0437 9.53186 15.6953 9.06438C15.3518 8.59688 14.8846 8.36421 14.2938 8.36636C13.7128 8.36848 13.2522 8.60209 12.9121 9.0672C12.572 9.52743 12.4036 10.2165 12.4069 11.1345ZM26.4672 12.5115L27.707 7.03573L29.4428 7.02941L27.3111 14.962L25.8463 14.9674L24.1272 9.5317L22.4771 14.9796L21.0123 14.985L18.8155 7.06813L20.5513 7.06181L21.8528 12.4697L23.459 7.05121L24.7993 7.04633L26.4672 12.5115ZM34.1524 15.0836C33.0245 15.0877 32.1077 14.737 31.402 14.0316C30.7011 13.3212 30.3486 12.3753 30.3443 11.1936L30.3435 10.9739C30.3406 10.1829 30.4894 9.47678 30.7898 8.85556C31.0952 8.22945 31.5231 7.74205 32.0736 7.39336C32.6241 7.04467 33.2387 6.86909 33.9174 6.86662C34.9965 6.86268 35.8302 7.20389 36.4187 7.89022C37.012 8.57654 37.311 9.54958 37.3156 10.8093L37.3182 11.5271L32.14 11.546C32.1961 12.2001 32.4153 12.7169 32.7975 13.0963C33.1846 13.4758 33.6687 13.6644 34.2498 13.6623C35.0652 13.6594 35.728 13.3273 36.2383 12.6663L37.2011 13.5783C36.8855 14.0531 36.462 14.4233 35.9308 14.6889C35.4044 14.9496 34.8116 15.0812 34.1524 15.0836ZM33.9153 8.29486C33.427 8.29663 33.0321 8.46897 32.7306 8.81187C32.434 9.15475 32.2453 9.63152 32.1645 10.2422L35.5556 10.2298L35.5551 10.098C35.5139 9.50242 35.3536 9.05378 35.0742 8.75206C34.7947 8.44546 34.4084 8.29306 33.9153 8.29486ZM42.8447 8.60656C42.6102 8.56835 42.3684 8.5497 42.1194 8.55061C41.3039 8.55358 40.7558 8.86808 40.4749 9.4941L40.4946 14.914L38.7148 14.9205L38.6859 6.99572L40.3852 6.98953L40.4323 7.8756C40.8595 7.18556 41.454 6.83915 42.2157 6.83638C42.4696 6.83545 42.6797 6.86886 42.8459 6.93662L42.8447 8.60656ZM47.3359 15.0355C46.208 15.0397 45.2912 14.689 44.5855 13.9835C43.8846 13.2732 43.5321 12.3272 43.5278 11.1456L43.527 10.9259C43.5241 10.1349 43.6729 9.42874 43.9733 8.80752C44.2787 8.18141 44.7066 7.694 45.2571 7.34532C45.8076 6.99663 46.4222 6.82105 47.1009 6.81857C48.18 6.81464 49.0137 7.15584 49.6022 7.84218C50.1955 8.5285 50.4945 9.50154 50.4991 10.7613L50.5017 11.4791L45.3235 11.4979C45.3796 12.152 45.5988 12.6688 45.981 13.0483C46.3681 13.4277 46.8522 13.6164 47.4333 13.6143C48.2487 13.6113 48.9116 13.2793 49.4218 12.6183L50.3846 13.5303C50.069 14.0051 49.6455 14.3753 49.1143 14.6409C48.5879 14.9016 47.9951 15.0331 47.3359 15.0355ZM47.0988 8.24681C46.6105 8.24859 46.2156 8.42093 45.9141 8.76383C45.6175 9.10671 45.4288 9.58347 45.348 10.1941L48.7391 10.1818L48.7386 10.0499C48.6974 9.45437 48.5371 9.00574 48.2577 8.70402C47.9782 8.39742 47.5919 8.24502 47.0988 8.24681ZM51.5541 10.8527C51.5496 9.63197 51.8293 8.65194 52.393 7.91258C52.9567 7.16833 53.7146 6.79447 54.6668 6.791C55.5066 6.78794 56.1864 7.07844 56.7061 7.66248L56.6913 3.60489L58.4711 3.59841L58.5121 14.8483L56.9007 14.8542L56.8099 14.0342C56.28 14.6807 55.5707 15.0055 54.6821 15.0088C53.7543 15.0122 53.001 14.6414 52.4221 13.8964C51.8481 13.1514 51.5588 12.1368 51.5541 10.8527ZM53.3344 11C53.3374 11.8056 53.4935 12.435 53.8027 12.8879C54.1169 13.336 54.5596 13.559 55.1309 13.5569C55.8584 13.5543 56.3894 13.2276 56.724 12.577L56.7117 9.19323C56.3822 8.55967 55.8537 8.24421 55.1262 8.24686C54.55 8.24896 54.1065 8.48007 53.7957 8.94019C53.4848 9.39542 53.3311 10.082 53.3344 11ZM71.0442 10.9208C71.0487 12.1513 70.7764 13.1313 70.2273 13.8608C69.6831 14.5903 68.93 14.9569 67.9681 14.9604C67.0404 14.9637 66.3165 14.6319 65.7965 13.9648L65.7117 14.8221L64.1004 14.828L64.0594 3.57804L65.8392 3.57156L65.8541 7.65844C66.3646 7.05111 67.0544 6.74586 67.9235 6.74269C68.8903 6.73917 69.6509 7.09529 70.2052 7.81105C70.7596 8.5268 71.0391 9.52921 71.0438 10.8183L71.0442 10.9208ZM69.2639 10.7735C69.2608 9.91411 69.107 9.27014 68.8027 8.84155C68.4984 8.41297 68.0582 8.19973 67.482 8.20183C66.7106 8.20464 66.1698 8.54353 65.8598 9.21849L65.8717 12.4851C66.1916 13.1724 66.7397 13.5146 67.516 13.5118C68.0727 13.5098 68.5016 13.3007 68.8028 12.8845C69.104 12.4684 69.258 11.8404 69.2647 11.0005L69.2639 10.7735ZM75.2312 12.2386L76.8229 6.85675L78.7199 6.84984L75.6037 15.9872C75.1252 17.322 74.3073 17.9915 73.1501 17.9957C72.8913 17.9966 72.6055 17.9537 72.2927 17.867L72.2877 16.49L72.6247 16.5108C73.0739 16.5091 73.4105 16.4249 73.6345 16.2581C73.8634 16.0961 74.0431 15.822 74.1735 15.4358L74.4273 14.7537L71.6154 6.87573L73.5344 6.86873L75.2312 12.2386Z" fill="black"/>
</svg>
